<svg width="146" height="41" viewBox="0 0 146 41" fill="none" xmlns="http://www.w3.org/2000/svg">
<path opacity="0.5" fill-rule="evenodd" clip-rule="evenodd" d="M0.200195 29.1V11.5H18.7002V15.7H8.0002V18.9H16.5002V22.9H8.0002V29.1H0.200195ZM56.9002 16.6C56.9002 16 56.4002 15.6 55.9002 15.3C55.2002 15.1 54.6002 15 53.8002 15C52.2002 15 51.3002 15.5 51.3002 16.1C51.3002 18.7 65.0002 17.1 65.0002 23.5C65.0002 27.7 60.4002 29.6 53.9002 29.6C47.5002 29.6 43.4002 26.9 43.3002 23.7H50.8002C51.0002 24.3 51.5002 24.8 52.1002 25.1C52.8002 25.4 53.6002 25.6 54.2002 25.6C56.2002 25.6 57.5002 25.1 57.5002 24.2C57.5002 21.6 43.9002 23.4 43.9002 16.7C43.9002 13 48.1002 11.1 54.2002 11.1C60.7002 11.1 63.7002 13.7 64.3002 16.7H56.9002V16.6ZM64.6002 11.5H86.5002V16.1H79.5002V29.1H71.7002V16.1H64.7002L64.6002 11.5ZM87.5002 29.1V11.5H106.8V15.7H95.3002V18H105.1V22.2H95.3002V24.9H107.2V29.1H87.5002Z" fill="white"/>
<path opacity="0.5" fill-rule="evenodd" clip-rule="evenodd" d="M43.5002 20.1C43.5002 26.2 38.1002 29.5 31.1002 29.5C23.6002 29.5 18.7002 26.1 18.7002 20.1C18.7002 14.5 23.8002 11 31.1002 11C39.6002 11 43.5002 15.5 43.5002 20.1ZM26.3002 20.1C26.3002 22.3 27.3002 25.2 31.0002 25.2C34.3002 25.2 35.6002 23.1 35.6002 20.1C35.6002 17.7 34.3002 15.1 30.9002 15.3C27.5002 15.3 26.3002 17.9 26.3002 20.1ZM116.1 23V29.1H108.4V11.5H119.5C127.5 11.5 130 13.1 130 16.5C130 18.6 128.9 20.3 126.1 20.8C128.6 21.4 130.2 21.9 130.2 25.4C130.2 27.8 130 28.6 131 28.6V29.1H123.2C122.9 28.8 122.7 27.7 122.7 26.1C122.7 23.7 122.2 23.1 118.6 23.1L116.1 23ZM116.1 19H119.2C121.7 19 123 18.7 123 17.4C123 16.1 121.5 15.6 119.7 15.6H116.1V19Z" fill="white"/>
<path opacity="0.5" fill-rule="evenodd" clip-rule="evenodd" d="M140.4 21.9C143.2 21.9 145.3 19.8 145.3 17.1C145.3 14.4 143.2 12.3 140.4 12.3C137.8 12.3 135.5 14.4 135.5 17.1C135.5 19.8 137.8 21.9 140.4 21.9ZM140.4 20.9C138.4 20.9 136.8 19.3 136.8 17.1C136.8 14.9 138.4 13.3 140.4 13.3C142.5 13.3 144.2 14.9 144.2 17.1C144.2 19.3 142.5 20.9 140.4 20.9ZM138.6 19.8H139.6V17.4H140.3L141.8 19.8H142.8L141.3 17.4C142.3 17.4 142.8 16.9 142.8 16C142.8 14.9 142.1 14.4 140.7 14.4H138.7L138.6 19.8ZM139.6 15.2H140.6C141.1 15.2 141.7 15.2 141.7 15.8C141.7 16.6 141 16.6 140.6 16.6H139.6V15.2Z" fill="white"/>
</svg>
