<svg width="131" height="41" viewBox="0 0 131 41" fill="none" xmlns="http://www.w3.org/2000/svg">
<path fill-rule="evenodd" clip-rule="evenodd" d="M112 18.3H120.3V10.1H112V18.3ZM112 28.1H120.3V19.9H112V28.1ZM122 18.3H130.3V10.1H122V18.3ZM127.1 19.9H122V22.7L127.1 19.9ZM127.7 28.1H122V24L127.7 28.1ZM130.2 28.1V19.9L123.7 23.4L130.2 28.1ZM114.7 6.80002C114.7 6.90002 114.7 6.80002 114.7 6.80002C114.6 6.60002 114.5 6.50002 114.4 6.40002C114.2 6.20002 114 6.20002 113.7 6.10002C113.4 6.10002 113.1 6.10002 112.8 6.50002C112.5 6.80002 112.5 7.10002 112.5 7.40002C112.506 7.75459 112.61 8.10058 112.8 8.40002C112.9 8.50002 113.1 8.70002 113.2 8.70002C113.4 8.80002 113.6 8.80002 113.8 8.80002H113.9H114H114.1V8.10002C114.1 8.00002 114 7.90002 113.9 7.90002H113.8C113.8 7.90002 113.7 7.90002 113.7 7.80002C113.7 7.80002 113.7 7.70002 113.8 7.70002H113.9H114.1H114.7H114.9C115 7.70002 114.9 7.80002 114.9 7.80002C114.8 7.80002 114.7 7.80002 114.7 7.90002V8.00002V8.60002L114.8 8.70002C114.7 8.70002 114.6 8.80002 114.4 8.80002H114.3H114H113.4H113.2C113 8.80002 112.8 8.70002 112.6 8.60002L112.3 8.30002C112 8.20002 112 8.00002 111.9 7.60002C111.9 7.30002 111.9 7.00002 112.1 6.70002C112.2 6.60002 112.3 6.40002 112.4 6.30002L113 6.00002C113.2 5.90002 113.4 5.90002 113.6 5.90002H114H114.1H114.2H114.3H114.4H114.6C114.7 5.90002 114.7 6.00002 114.7 6.00002V6.10002V6.20002V6.40002C114.8 6.70002 114.8 6.70002 114.7 6.80002ZM116.4 8.90002H116H115.8H115.7H115.5H115.4H115.3C115.2 8.90002 115.3 8.70002 115.3 8.80002C115.4 8.80002 115.6 8.80002 115.6 8.60002V8.50002V6.50002C115.6 6.40002 115.6 6.30002 115.5 6.20002H115.3C115.3 6.20002 115.2 6.20002 115.2 6.10002C115.2 6.10002 115.2 6.00002 115.3 6.00002H115.6H115.8H115.9H116H116.4H116.6H116.8C116.9 6.00002 117.1 6.10002 117.3 6.10002C117.4 6.20002 117.5 6.30002 117.5 6.40002C117.6 6.60002 117.6 7.00002 117.3 7.20002C117.2 7.30002 117.1 7.40002 116.9 7.40002C117.2 7.80002 117.4 8.20002 117.7 8.50002C117.7 8.60002 117.8 8.60002 117.9 8.60002H118.1V8.70002H117.7H117.5H117.4H117.3L117.2 8.60002L117.1 8.50002C117 8.40002 117 8.30002 116.9 8.20002C116.8 8.10002 116.7 7.90002 116.6 7.80002C116.5 7.70002 116.5 7.60002 116.5 7.60002C116.5 7.60002 116.5 7.50002 116.4 7.50002H116.1V8.40002C116.1 8.50002 116.1 8.60002 116.2 8.70002H116.4C116.4 8.70002 116.5 8.70002 116.5 8.80002C116.5 8.80002 116.5 8.90002 116.4 8.90002C116.5 8.90002 116.6 8.90002 116.4 8.90002ZM116.3 6.20002V7.40002H116.6H116.7C116.8 7.40002 117 7.40002 117.1 7.20002C117.2 7.10002 117.2 7.00002 117.2 6.80002C117.2 6.60002 117.2 6.40002 117 6.30002C116.9 6.20002 116.8 6.20002 116.7 6.20002H116.6H116.5H116.3ZM118.2 7.50002C118.193 7.27598 118.234 7.05311 118.321 6.84622C118.407 6.63932 118.536 6.45314 118.7 6.30002C119 6.10002 119.4 5.90002 119.7 5.90002C120 5.90002 120.3 5.90002 120.6 6.10002C120.8 6.20002 120.9 6.30002 121.1 6.50002C121.4 6.80002 121.4 7.20002 121.4 7.50002C121.4 7.80002 121.3 8.20002 120.9 8.60002C120.5 8.90002 120.1 9.00002 119.6 9.00002C119.3 9.00002 118.9 8.90002 118.6 8.60002C118.3 8.30002 118.2 8.00002 118.2 7.70002V7.50002ZM118.9 8.00002C119 8.20002 119 8.30002 119.2 8.50002C119.4 8.80002 119.7 8.80002 119.9 8.80002C120.1 8.80002 120.3 8.80002 120.5 8.60002C120.6 8.50002 120.7 8.40002 120.8 8.20002C120.8 8.10002 120.8 8.10002 120.9 8.00002C120.9 7.80002 121 7.60002 120.9 7.40002C120.9 7.10002 120.8 6.70002 120.5 6.40002C120.2 6.10002 119.8 6.10002 119.5 6.10002C119.3 6.20002 119.2 6.30002 119.1 6.40002C119 6.50002 118.9 6.70002 118.9 6.90002C118.9 7.10002 118.8 7.30002 118.9 7.50002C118.8 7.80002 118.8 7.90002 118.9 8.00002ZM122.8 6.00002L122.9 6.10002H122.7C122.6 6.20002 122.6 6.30002 122.6 6.40002V7.80002V7.90002V8.10002C122.6 8.30002 122.7 8.40002 122.8 8.50002C123 8.70002 123.1 8.70002 123.3 8.70002C123.5 8.70002 123.7 8.70002 123.9 8.50002C124.1 8.30002 124.1 8.20002 124.2 8.00002V7.90002V7.80002V6.30002C124.2 6.30002 124.2 6.10002 124.1 6.10002H123.9H123.8C123.8 6.10002 123.8 6.00002 123.9 6.00002H124H124.3H124.4H124.5H124.8C124.9 6.00002 124.9 6.10002 124.8 6.10002C124.7 6.10002 124.6 6.10002 124.5 6.20002V6.40002V7.70002V7.90002C124.5 8.00002 124.5 8.10002 124.4 8.20002C124.3 8.40002 124.3 8.50002 124.1 8.70002C123.9 8.80002 123.7 8.90002 123.6 8.90002H122.8C122.6 8.90002 122.4 8.80002 122.2 8.60002C122.1 8.50002 122 8.40002 122 8.20002V8.00002V6.40002C122 6.40002 122 6.20002 121.9 6.10002H121.8H121.7V6.00002H122H122.2H122.3H122.5H122.8ZM126.5 7.70002C126.4 7.70002 126.4 7.60002 126.5 7.60002H126.7C126.8 7.60002 126.8 7.60002 126.9 7.50002C127 7.50002 127 7.40002 127 7.40002V6.90002C127 6.80002 127 6.60002 126.9 6.50002C126.8 6.40002 126.7 6.20002 126.5 6.20002H126.3H126.2V8.50002C126.2 8.60002 126.2 8.70002 126.3 8.80002H126.5H126.6V8.90002H126.4H126.1H126H125.8H125.7H125.4C125.3 8.90002 125.4 8.80002 125.4 8.80002C125.5 8.80002 125.5 8.80002 125.6 8.70002C125.7 8.60002 125.7 8.50002 125.7 8.40002V6.40002C125.7 6.30002 125.7 6.20002 125.6 6.10002H125.5C125.5 6.10002 125.4 6.10002 125.4 6.00002V5.90002H125.6H125.9H126.2H126.3H126.5H126.6C126.7 5.90002 126.9 5.90002 127.1 6.00002C127.25 6.02507 127.389 6.09475 127.5 6.20002C127.7 6.40002 127.7 6.70002 127.6 7.00002C127.5 7.10002 127.4 7.30002 127.3 7.30002C127.1 7.40002 127 7.50002 126.8 7.50002C126.7 7.70002 126.6 7.70002 126.5 7.70002ZM128 8.80002C128.1 8.80002 128.2 8.70002 128.2 8.60002V6.40002C128.2 6.40002 128.2 6.20002 128.1 6.20002H127.9V6.10002H128.1H128.7H129H129.1H129.4H129.7H129.8H129.9V6.30002V6.60002V6.70002C129.9 6.70002 129.8 6.80002 129.8 6.70002V6.50002C129.8 6.30002 129.6 6.20002 129.5 6.20002H129.3H128.7V7.30002H129.3C129.3 7.30002 129.4 7.30002 129.5 7.20002C129.6 7.10002 129.6 7.10002 129.6 7.00002C129.6 6.90002 129.7 6.90002 129.7 7.00002V7.20002V7.30002V7.60002V7.90002V8.00002C129.7 8.10002 129.6 8.10002 129.6 8.00002V7.80002C129.6 7.70002 129.5 7.60002 129.4 7.60002H128.8V8.60002C128.8 8.70002 128.8 8.80002 128.9 8.80002H129H129.2H129.3H129.7C129.8 8.80002 129.9 8.80002 130 8.70002C130.1 8.60002 130.1 8.50002 130.2 8.40002V8.30002H130.3V8.40002C130.3 8.40002 130.3 8.60002 130.2 8.70002V8.90002C130.2 9.00002 130.2 8.90002 130.2 8.90002H130H129.8H129.5H129.3H129.2H128.9H128.5H128.3H128H127.9C127.8 8.90002 127.9 8.80002 127.9 8.80002H128ZM95.7997 24.2C95.9996 24.2 96.0997 24.1 96.2997 24.3C96.2997 24.3 96.2997 24.4 96.3997 24.4V24.5C96.3997 24.6 96.3997 24.7 96.4996 24.8C96.4996 24.9 96.5996 25 96.5996 25.1C96.5996 25.2 96.6997 25.4 96.7997 25.6C96.9996 26 97.1996 26.4 97.4996 26.7C97.7997 27.1 98.1996 27.4 98.6996 27.7C98.7996 27.8 98.8997 27.8 98.9996 27.9C99.1996 28 99.4996 28.1 99.6996 28.1C100.3 28.2 101 28.3 101.6 28.2L102.7 27.9C102.8 27.9 102.9 27.8 103 27.7C103.1 27.6 103.2 27.6 103.3 27.5C103.4 27.4 103.6 27.3 103.7 27.2C103.9 27 104 26.8 104.2 26.6C104.3 26.4 104.4 26.2 104.4 26C104.5 25.4 104.5 24.7 104.2 24.1C104.1 23.8 103.8 23.5 103.6 23.2C103.5 23.1 103.3 22.9 103.1 22.8C102.9 22.6 102.6 22.5 102.4 22.3C102.2 22.2 102.1 22.1 102 22.1C101.9 22 101.9 22 101.8 22C101.8 22 101.7 22 101.6 21.9L101 21.6C100.8 21.5 100.7 21.5 100.6 21.4L100.1 21.2L99.7997 21H99.5996L99.3997 20.9C99.2997 20.9 99.1996 20.8 99.0996 20.8C98.9996 20.8 98.9996 20.8 98.9996 20.7C98.9996 20.7 98.8997 20.7 98.7997 20.6C98.6997 20.5 98.3996 20.4 98.1996 20.2C97.9996 20.1 97.7996 19.9 97.6996 19.8C97.5996 19.7 97.3997 19.6 97.2997 19.5C96.9996 19.2 96.7996 18.9 96.5996 18.5C96.4996 18.4 96.4996 18.3 96.3997 18.1C96.2997 18 96.2996 17.8 96.1996 17.7C95.9996 17.2 95.8997 16.7 95.8997 16.2C95.7997 15.4 95.9996 14.6 96.2997 13.8C96.3997 13.5 96.4996 13.3 96.6996 13C96.884 12.6359 97.1596 12.3258 97.4996 12.1C97.9996 11.6 98.5997 11.3 99.2997 11C99.4996 10.9 99.6997 10.9 99.8997 10.8C100.6 10.6 101.3 10.5 102 10.5H102.9H103.1C103.3 10.5 103.5 10.5 103.7 10.6H103.9H104.3H104.7H105L106 10.7H106.2H106.3C106.4 10.7 106.6 10.9 106.6 11V11.1V11.3V11.7C106.6 11.9 106.6 12.3 106.7 12.7C106.7 13.1 106.8 13.6 106.8 13.9V14.2V14.4C106.8 14.5 106.7 14.5 106.6 14.5C106.5 14.5 106.4 14.6 106.3 14.6C106.2 14.6 106.2 14.6 106.1 14.5L106 14.4V14.3V14.2L105.7 13.3L105.1 12.4C104.6 11.9 104.1 11.6 103.6 11.5C103.4 11.4 103.2 11.4 102.9 11.4C102.2 11.3 101.5 11.4 100.9 11.7C100.8 11.7 100.7 11.8 100.6 11.8C100.3 11.9 99.9996 12.2 99.7997 12.4C99.3997 12.8 99.2996 13.2 99.1996 13.6C99.0996 13.9 99.0996 14.3 99.0996 14.6C99.0996 15 99.1997 15.3 99.2997 15.7C99.3997 16 99.5997 16.3 99.7997 16.5L99.9996 16.7C100.1 16.8 100.2 16.9 100.3 16.9C100.6 17.1 101 17.4 101.4 17.6C101.5 17.7 101.7 17.7 101.8 17.8C101.9 17.9 102 17.9 102.1 18L102.5 18.2C102.7 18.3 102.8 18.3 102.9 18.4C103.1 18.5 103.3 18.6 103.5 18.6C103.6 18.6 103.7 18.7 103.8 18.7C103.8 18.7 103.9 18.7 104 18.8C104.1 18.8 104.2 18.9 104.3 18.9C104.6 19.1 104.9 19.2 105.3 19.4C105.5 19.5 105.8 19.7 106.1 19.9C106.2 20 106.4 20.1 106.5 20.2C106.987 20.6993 107.392 21.2732 107.7 21.9C107.947 22.4854 108.075 23.1145 108.075 23.75C108.075 24.3856 107.947 25.0147 107.7 25.6C107.5 26.3 107 26.9 106.5 27.3C106.2 27.5 106 27.8 105.7 27.9C105.5 28 105.4 28.1 105.2 28.2C104.8 28.4 104.4 28.6 103.9 28.7C103.7 28.8 103.4 28.8 103.1 28.9C102.5 29 101.9 29.1 101.2 29.1C100.6 29.1 99.9996 29 99.3997 28.9C99.0996 28.8 98.7997 28.8 98.3997 28.7C97.9996 28.6 97.5996 28.4 97.3997 28.3C97.0996 28.2 96.9996 28.2 96.8997 28.1L96.6996 28H96.5996L96.4996 27.9L96.3997 27.8V27.7L96.2997 27.2C96.2997 27 96.2996 26.8 96.1996 26.7V26.5C96.1996 26.3 96.0996 26.1 96.0996 25.9C96.0996 25.7 95.9996 25.4 95.9996 25.1V24.7V24.4V24.3C95.9996 24.2 95.9996 24.1 96.0996 24.1C95.5996 24.3 95.6997 24.2 95.7997 24.2ZM53.6996 28.9H53.5996H53.2996H53.0996H52.1996L51.9996 29C51.8997 29 51.8996 29 51.7996 28.9C51.6996 28.9 51.6996 28.8 51.6996 28.8V28.6C51.6996 28.5 51.6996 28.5 51.7996 28.4C51.8996 28.2 52.0997 28.3 52.1996 28.3H52.2996C52.3996 28.3 52.6996 28.3 52.8997 28.2C52.9996 28.2 53.0996 28.2 53.0996 28.1C53.2996 28 53.5996 27.9 53.7996 27.8L54.1996 27.4C54.3997 27.1 54.4996 26.8 54.5996 26.5C54.5996 26.4 54.5997 26.3 54.6996 26.2C54.6841 26.0272 54.7188 25.8536 54.7996 25.7V25.6V25.4V25V14C54.7996 13.7 54.6996 13.4 54.5996 13.1C54.4996 12.8 54.2996 12.6 54.0996 12.4C53.9996 12.3 53.7996 12.2 53.6996 12.1C53.4996 12 53.3997 11.9 53.1996 11.9C53.0997 11.8 52.8997 11.8 52.6996 11.8H52.4996H52.3997C52.1996 11.8 52.0997 11.8 51.8997 11.7C51.7997 11.6 51.7996 11.4 51.7996 11.2C51.7996 11.1 51.8997 11.1 51.8997 11H52.0996H52.4996C53.0996 11 53.5997 11 54.1996 11.1H54.4996H54.6996H54.9996H55.2996H55.4996H56.1996L57.2996 11H57.3997H57.4996H57.5996C57.5996 11 57.6996 11 57.6996 11.1L70.5996 24L70.6996 23.9V14.1C70.6996 13.9 70.6996 13.7 70.5996 13.4C70.5996 13.3 70.5996 13.2 70.4996 13.2C70.4996 13.1 70.3997 13.1 70.3997 13C70.2997 12.8 70.1996 12.6 69.9996 12.4C69.7996 12.2 69.5997 12.1 69.2997 12C69.0997 11.9 68.8996 11.9 68.5996 11.8H68.1996H67.9996H67.6996C67.5996 11.8 67.5996 11.8 67.4996 11.7L67.3997 11.6V11.4C67.3997 11.3 67.3997 11.3 67.4996 11.2C67.5996 11.1 67.6996 11.1 67.6996 11.1H67.7997H68.2997L70.5996 11.2H71.1996H71.2997H71.4996H71.6996H71.8997H71.9996H72.3997H72.9996H73.3997H73.9996H74.2997H74.4996H74.5996C74.6996 11.2 74.6997 11.2 74.7997 11.3C74.8997 11.3 74.8997 11.4 74.8997 11.4C74.8997 11.5 74.9996 11.5 74.8997 11.6C74.8997 11.7 74.8997 11.7 74.7997 11.8C74.6997 12 74.4996 11.9 74.2997 11.9H73.8997C73.6997 11.9 73.4996 11.9 73.2997 12C72.9996 12.1 72.6996 12.2 72.4996 12.5C72.3997 12.6 72.2996 12.8 72.1996 12.9C72.0996 13.1 71.9996 13.3 71.8997 13.6C71.8997 13.8 71.7997 14 71.7997 14.2V14.6V15.2V27.1V27.3V27.5V28C71.7997 28.4 71.7997 28.7 71.8997 29.1V29.2C71.8997 29.3 71.8997 29.4 71.7997 29.5C71.6997 29.6 71.5996 29.6 71.4996 29.6H70.8997C70.7997 29.6 70.7996 29.6 70.6996 29.5L56.1996 14.5V25.6V25.9V26V26.1V26.2C56.1996 26.3 56.2996 26.6 56.2996 26.8C56.2996 26.9 56.3997 27.1 56.3997 27.2C56.4996 27.4 56.5996 27.6 56.7996 27.7C56.9996 27.8 57.0996 27.9 57.2996 28C57.5996 28.1 57.7996 28.2 58.0996 28.2H58.2996H58.3997H58.4996H58.6996H59.0996C59.1996 28.2 59.2996 28.3 59.2996 28.4V28.6C59.2996 28.7 59.2996 28.7 59.1996 28.8L59.0996 28.9H58.9996H58.8997H58.3997H57.5996H57.2996H56.8997H56.1996H55.7996H54.7996H53.6996ZM42.7996 28.9H42.4996H42.1996H41.7996H41.3997H41.0996H40.9996H40.7996C40.6996 28.9 40.6996 28.9 40.5996 28.8L40.4996 28.7C40.3997 28.6 40.3996 28.4 40.5996 28.3C40.6996 28.2 40.8997 28.2 40.9996 28.2H41.4996H41.5996H41.6996C41.8997 28.2 42.1996 28.1 42.3997 28C42.6996 27.8 42.8997 27.6 42.9996 27.3V27.1V26.9V13.2C42.9996 13 42.8997 12.8 42.8997 12.6C42.8211 12.4213 42.6783 12.2786 42.4996 12.2C42.2996 12.1 42.1996 12 41.9996 12C41.8997 12 41.6996 11.9 41.5996 11.9H41.4996H41.2996H40.8997C40.7997 11.9 40.5996 11.9 40.4996 11.8C40.4996 11.7 40.3997 11.7 40.3997 11.6V11.4C40.3997 11.3 40.4996 11.3 40.5996 11.2H40.7996H41.2996H42.0996H42.3997H42.7996H43.2996H43.4996H43.6996H43.8997H44.0996H45.1996H45.4996H45.7996H46.3997H47.6996H48.2996H48.4996H48.7996H48.8997H48.9996C49.0996 11.2 49.0997 11.2 49.1996 11.3L49.2996 11.4V11.6C49.2996 11.7 49.2996 11.7 49.1996 11.8C49.0997 12 48.8996 11.9 48.7996 11.9H48.5996H48.4996H48.3997H48.0996C47.8996 11.9 47.6996 12 47.4996 12.1C47.4996 12.1 47.3997 12.1 47.3997 12.2C47.1996 12.3 46.9996 12.5 46.8997 12.7C46.7997 12.8 46.7996 13 46.7996 13.1V13.4V27V27.2C46.7996 27.4 46.8997 27.7 47.1996 28C47.3997 28.2 47.5996 28.3 47.7996 28.3C47.8996 28.3 48.0997 28.4 48.1996 28.4H48.2996H48.3997H48.5996H49.0996L49.1996 28.5C49.1996 28.5 49.2996 28.6 49.2996 28.7C49.2996 28.8 49.2996 28.9 49.1996 29.1C49.0997 29.2 49.0996 29.2 48.9996 29.2H48.5996H48.3997H47.9996H47.4996H47.1996H46.8997H46.3997H45.8997H45.4996H44.9996H43.8997C43.7997 28.9 43.2996 28.9 42.7996 28.9ZM13.7996 27L7.39965 20.3C7.29965 20.1 7.19965 20 7.39965 19.8L13.7996 13.9C13.8996 13.8 13.9997 13.7 14.0996 13.7L14.3996 13.4L14.5996 13.2C14.6996 13.1 14.6996 13.1 14.6996 13C14.7996 12.9 14.8996 12.8 14.8996 12.6C14.9568 12.5044 14.9781 12.3916 14.9598 12.2817C14.9415 12.1718 14.8847 12.072 14.7996 12C14.6996 11.9 14.5996 11.9 14.3996 11.8H14.1996H14.0996H13.5996H13.4996H13.3996H13.1996C13.0996 11.8 12.9996 11.7 12.8996 11.6C12.8996 11.5 12.7996 11.5 12.8996 11.4C12.8996 11.3 12.8996 11.2 12.9996 11.2L13.0996 11.1H13.2996H13.4996H13.9996H14.3996H15.3996H15.9997H16.2996H16.4997H16.6997H16.7996H17.0997H17.4997H17.8996H18.3996H19.4997H19.9997H20.2996H20.5997H20.6997H20.7996C20.8996 11.1 21.0997 11.2 21.0997 11.3C21.1997 11.4 21.1997 11.6 21.0997 11.7C21.0997 11.8 20.9997 11.8 20.9997 11.8C20.9997 11.8 20.8996 11.9 20.7996 11.9H20.4997H20.3996H19.8996C19.4997 12 19.0996 12 18.7996 12.2C18.5996 12.3 18.3997 12.3 18.1997 12.4L17.5997 12.7C17.3997 12.8 17.0996 13 16.8996 13.1C16.6996 13.2 16.5996 13.3 16.3996 13.4C16.2996 13.5 16.0997 13.6 15.9997 13.7L15.8996 13.8C15.7996 13.9 15.6997 14 15.5997 14L10.6996 18.4L18.8996 27L18.9997 27.1C18.9997 27.1 19.0997 27.1 19.0997 27.2L19.1997 27.3L19.2996 27.4L19.3996 27.5C19.5996 27.6 19.7997 27.8 19.9997 27.9L20.7996 28.2H20.9997H21.0997H21.1997C21.2997 28.2 21.3996 28.3 21.4997 28.4V28.6V28.8C21.4997 28.9 21.3996 28.9 21.3996 28.9C21.2996 28.9 21.2997 29 21.1997 28.9H20.9997H20.7996H20.5997H20.2996H20.0997H19.7996H19.1997H18.8996H18.6997H18.4997H18.2996H17.1997H16.8996H16.6997H16.4997H15.8996H14.5996H14.2996H13.9996H13.3996H12.8996H12.7996H12.5996L12.4996 28.8C12.4996 28.7 12.3996 28.7 12.3996 28.6V28.4C12.3996 28.3 12.4996 28.3 12.4996 28.3C12.4996 28.3 12.5996 28.2 12.6996 28.2H12.7996H13.2996H13.4996H13.6996C13.7996 28.2 13.8996 28.2 13.9996 28.1C14.0996 28 14.0996 27.9 13.9996 27.7C14.1996 27.4 13.9996 27.2 13.7996 27ZM39.3997 28.1L39.2996 28.4L39.1996 28.7V28.8C39.1996 28.9 39.0996 28.9 39.0996 28.9C39.0996 28.9 38.9997 29 38.8997 29H38.7996H38.6996H38.0996C36.5996 29 35.0996 29 33.5996 28.9H32.9996H32.1996H30.5996H28.9996H28.2996H27.2996H25.4996H24.8996H24.1996C24.0996 28.9 24.0996 28.9 23.9996 28.8C23.8996 28.8 23.8996 28.7 23.8996 28.7V28.5C23.8996 28.4 23.8996 28.4 23.9996 28.3C24.0996 28.1 24.2996 28.2 24.3996 28.2H24.6996H24.8996H24.9996H25.1996C25.4996 28.2 25.7997 28.1 26.0996 27.8C26.1996 27.7 26.2996 27.6 26.3996 27.4C26.4996 27.2 26.4996 27 26.5996 26.8V26.6V26.4V13C26.5996 12.9 26.5996 12.7 26.4996 12.6C26.3996 12.4 26.3997 12.2 26.1996 12C26.0996 11.9 25.8997 11.8 25.6996 11.7C25.3997 11.6 25.1996 11.6 24.8996 11.5H24.7996H24.6996H24.1996C24.0996 11.5 23.9996 11.4 23.9996 11.3V11.1C23.9996 11 23.9996 11 24.0996 10.9C24.1996 10.8 24.2996 10.8 24.2996 10.8H24.3996H24.9996H25.9996H27.5996H28.2996H28.4996H28.6996H28.9996H29.2996H29.4996H29.6996H30.2996H30.9996H31.7996H32.0996H32.2996H32.3997H32.4996H32.5996C32.6996 10.8 32.6996 10.8 32.7996 10.9L32.8997 11V11.2C32.8997 11.3 32.8996 11.3 32.7996 11.4L32.6996 11.5H32.4996H31.7996H31.5996H31.4996H31.3996C31.2996 11.5 31.0996 11.5 30.9996 11.6C30.8996 11.6 30.7997 11.7 30.6996 11.7C30.521 11.7786 30.3782 11.9213 30.2996 12.1C30.1996 12.2 30.1996 12.4 30.1996 12.5V12.9V26.4C30.1996 26.7 30.2997 27 30.5996 27.3C30.6996 27.4 30.6996 27.4 30.7996 27.4C30.8996 27.5 30.9996 27.5 31.0996 27.6C31.1996 27.6 31.1996 27.6 31.2996 27.7C31.3996 27.7 31.4996 27.7 31.6996 27.8H31.7996H31.9996H32.1996H32.2996H32.4996H32.5996H32.8997H33.2996H33.9996H34.6996H34.9996H35.1996H35.4996H35.7996C35.9996 27.8 36.0996 27.7 36.2996 27.7C36.4996 27.7 36.5996 27.6 36.7996 27.6C37.3394 27.4158 37.846 27.1457 38.2996 26.8C38.5996 26.5 38.8996 26.2 39.0996 25.8C39.1996 25.7 39.1996 25.5 39.2996 25.4C39.3996 25.3 39.3997 25.2 39.3997 25.2L39.4996 25V24.9C39.4996 24.8 39.5997 24.7 39.6996 24.6H39.9996C40.0996 24.6 40.1996 24.7 40.1996 24.7L40.2996 24.9V25C40.2996 25.1 40.1996 25.3 40.1996 25.4L40.0996 25.8L39.9996 26L39.7996 26.7L39.6996 26.9C39.4996 27.4 39.4996 27.8 39.3997 28.1Z" fill="white" fill-opacity="0.5"/>
<path fill-rule="evenodd" clip-rule="evenodd" d="M3.5998 11H3.8998H4.6998H4.8998H5.1998H5.4998H5.7998H6.8998H8.3998H8.9998H9.3998H9.6998H9.7998C9.89981 11 9.8998 11 9.9998 11.1C10.0998 11.1 10.0998 11.2 10.0998 11.2V11.4C10.0998 11.5 10.0998 11.5 9.9998 11.6C9.7998 11.8 9.5998 11.7 9.3998 11.7H8.8998C8.5998 11.7 8.1998 11.8 7.8998 11.9C7.6998 12 7.4998 12.1 7.3998 12.2C7.2998 12.3 7.1998 12.4 7.1998 12.5C6.9998 12.7 6.9998 12.8 6.9998 12.9V13.1V26.7C6.9998 26.8 6.9998 27.1 7.0998 27.3C7.1998 27.5 7.3998 27.7 7.5998 27.8C7.5998 27.8 7.6998 27.8 7.6998 27.9C7.6998 27.9 7.7998 27.9 7.8998 28C7.9998 28 8.1998 28.1 8.3998 28.1H8.6998H8.9998H9.1998H9.2998H9.7998C9.89981 28.1 9.9998 28.3 9.9998 28.4C9.9998 28.5 9.9998 28.6 9.8998 28.8C9.7998 28.9 9.7998 28.9 9.6998 28.9H9.5998H9.2998C8.39981 28.9 7.4998 28.9 6.5998 28.8H6.1998H4.3998H2.9998H2.1998H1.4998H1.1998H0.899805H0.799805C0.699805 28.8 0.699805 28.8 0.599805 28.7C0.499805 28.7 0.499805 28.6 0.499805 28.6V28.4C0.499805 28.3 0.499805 28.3 0.599805 28.2C0.699805 28 0.899805 28.1 0.999805 28.1H1.0998H1.5998H1.6998H1.9998C2.0998 28.1 2.1998 28.1 2.1998 28L2.7998 27.7C2.8998 27.4 2.9998 27.2 2.9998 26.9V26.7V13.1C2.9998 12.9 2.9998 12.8 2.8998 12.6C2.7998 12.4 2.6998 12.2 2.5998 12.1C2.3998 11.9 2.1998 11.8 1.8998 11.8H1.6998H1.4998H1.2998H1.1998H0.999805H0.499805C0.499805 11.8 0.399805 11.8 0.399805 11.7L0.299805 11.6V11.4C0.299805 11.3 0.299805 11.3 0.399805 11.2L0.499805 11.1H0.599805H0.699805H1.2998H2.1998H2.4998C2.8998 11 3.2998 11 3.5998 11ZM41.7998 5.30002L45.5998 9.00002L49.3998 5.20002L45.5998 1.40002L41.7998 5.30002ZM74.9998 24.8C75.7998 26.2 77.0998 27.4 78.5998 28.2C80.0998 29 81.7998 29.4 83.5998 29.4C85.2998 29.4 87.0998 29 88.5998 28.2C90.0998 27.4 91.2998 26.2 92.1998 24.7C93.0383 23.1298 93.4843 21.38 93.4998 19.6C93.4998 17.9 93.0998 16.2 92.1998 14.9C91.2998 13.5 89.9998 12.5 88.6998 11.8C87.3998 11.1 85.9998 10.8 84.7998 10.7C83.5998 10.6 82.4998 10.6 81.5998 10.8C80.6998 11 79.7998 11.3 78.8998 11.7C77.9998 12.2 77.1998 12.8 76.4998 13.5C75.6998 14.3 75.0998 15.3 74.5998 16.3C74.0998 17.6 73.7998 18.9 73.7998 20.3C73.6998 21.7 74.0998 23.4 74.9998 24.8ZM77.3998 19.3C77.3998 17.9 77.5998 16.7 77.9998 15.6C78.3998 14.5 78.9998 13.4 79.8998 12.7C80.7998 12 82.0998 11.6 83.3998 11.6C84.5998 11.6 85.8998 12 86.7998 12.8C87.7998 13.6 88.4998 14.8 88.9998 16C89.4998 17.2 89.6998 18.6 89.6998 19.9C89.6998 21.1 89.5998 22.3 89.3998 23.4C89.1998 24.3 88.9998 24.9 88.6998 25.4C88.4234 25.8743 88.0873 26.3112 87.6998 26.7C87.2998 27.1 86.8998 27.3 86.4998 27.6C85.9998 27.8 85.5998 28 84.9998 28.1C84.3998 28.2 83.6998 28.3 82.8998 28.1C82.0998 27.9 81.0998 27.6 80.2998 26.8C79.4998 26 78.6998 24.8 78.2998 23.5C77.5998 22.1 77.3998 20.6 77.3998 19.3ZM0.799805 33.6V38.6H3.5998V37.9H1.4998V36.2H3.5998V35.5H1.4998V34.2H3.5998V33.5H0.799805V33.6ZM6.5998 33.4V38.6H7.2998V35L10.9998 38.8V33.5H10.2998V37.1L6.5998 33.4ZM13.8998 33.6V34.3H15.0998V38.6H15.7998V34.3H16.9998V33.6H13.8998ZM20.5998 34.2C21.0998 34.2 21.3998 34.2 21.5998 34.3C21.8998 34.4 22.0998 34.7 22.0998 35C22.0998 35.3 21.8998 35.6 21.5998 35.8C21.3998 35.9 21.0998 35.9 20.5998 35.9V34.2ZM19.9998 33.6V38.6H20.6998V36.5H20.8998L22.2998 38.6H22.9998L21.4998 36.5C21.8998 36.4 22.0998 36.3 22.2998 36.1C22.5998 35.8 22.7998 35.5 22.7998 35C22.7998 34.2 21.9998 33.6 20.9998 33.6H19.9998ZM25.8998 33.6V38.6H28.6998V37.9H26.5998V36.2H28.6998V35.5H26.5998V34.2H28.6998V33.5H25.8998V33.6ZM32.3998 34.2C32.8998 34.2 33.1998 34.2 33.3998 34.3C33.6998 34.4 33.8998 34.7 33.8998 35C33.8998 35.6 33.3998 35.9 32.3998 35.9V34.2ZM31.6998 33.6V38.6H32.3998V36.5C32.9998 36.5 33.2998 36.4 33.6998 36.3C34.2998 36 34.6998 35.6 34.6998 35C34.6998 34.1 33.8998 33.6 32.7998 33.6H31.6998ZM38.2998 34.2C38.7998 34.2 39.0998 34.2 39.2998 34.3C39.5998 34.4 39.7998 34.7 39.7998 35C39.7998 35.3 39.5998 35.6 39.2998 35.8C39.0998 35.9 38.7998 35.9 38.2998 35.9V34.2ZM37.5998 33.6V38.6H38.2998V36.5H38.4998L39.8998 38.6H40.6998L39.1998 36.5C39.5998 36.4 39.7998 36.3 39.9998 36.1C40.2998 35.8 40.4998 35.5 40.4998 35C40.4998 34.2 39.6998 33.6 38.6998 33.6H37.5998ZM43.5998 33.6V38.6H44.2998V33.6H43.5998ZM50.4998 34.2C50.2998 33.9 50.1998 33.8 49.8998 33.7C49.5998 33.5 49.2998 33.5 48.8998 33.5C48.0998 33.5 47.3998 34.1 47.3998 34.8C47.3998 35.1 47.4998 35.4 47.7998 35.7C48.0998 36 48.2998 36.1 48.7998 36.3L49.5998 36.7C49.7998 36.9 49.8998 37.1 49.8998 37.3C49.8998 37.8 49.4998 38.1 48.9998 38.1C48.4998 38.1 48.0998 37.8 47.7998 37.3L47.0998 37.5C47.2998 37.9 47.3998 38.1 47.5998 38.3C47.9998 38.7 48.3998 38.9 48.9998 38.9C49.8998 38.9 50.5998 38.2 50.5998 37.4C50.5998 37 50.4998 36.6 50.1998 36.3C49.7998 36 49.6998 35.9 49.0998 35.6C48.4998 35.3 48.1998 35.1 48.1998 34.8C48.1998 34.4 48.4998 34.2 48.9998 34.2C49.3998 34.2 49.5998 34.3 49.8998 34.7L50.4998 34.2ZM53.5998 33.6V38.6H56.3998V37.9H54.2998V36.2H56.3998V35.5H54.2998V34.2H56.3998V33.5H53.5998V33.6ZM65.6998 34.3H65.9998C66.5998 34.3 66.9998 34.4 67.1998 34.5C67.8998 34.8 68.2998 35.4 68.2998 36.2C68.2998 36.9 67.8998 37.6 67.1998 37.8C66.7998 38 66.4998 38 65.5998 38L65.6998 34.3ZM64.9998 33.6V38.6H66.1998C66.6407 38.5983 67.0788 38.5309 67.4998 38.4C67.8998 38.2 68.2998 37.9 68.5998 37.5C68.8998 37.1 68.9998 36.6 68.9998 36.1C68.9998 35.4 68.6998 34.8 68.2998 34.3C67.7998 33.8 67.0998 33.6 66.1998 33.6H64.9998ZM71.9998 33.6V38.6H74.7998V37.9H72.6998V36.2H74.7998V35.5H72.6998V34.2H74.7998V33.5H71.9998V33.6ZM84.1998 34.2C84.6998 34.2 84.9998 34.2 85.1998 34.3C85.4998 34.4 85.6998 34.7 85.6998 35C85.6998 35.6 85.1998 35.9 84.1998 35.9V34.2ZM83.4998 33.6V38.6H84.1998V36.5C84.7998 36.5 85.0998 36.4 85.4998 36.3C86.0998 36 86.4998 35.6 86.4998 35C86.4998 34.1 85.6998 33.6 84.5998 33.6H83.4998ZM90.0998 34.2C90.5998 34.2 90.8998 34.2 91.0998 34.3C91.3998 34.4 91.5998 34.7 91.5998 35C91.5998 35.3 91.3998 35.6 91.0998 35.8C90.8998 35.9 90.5998 35.9 90.0998 35.9V34.2ZM89.3998 33.6V38.6H90.0998V36.5H90.2998L91.6998 38.6H92.4998L90.9998 36.5C91.3998 36.4 91.5998 36.3 91.7998 36.1C92.0998 35.8 92.2998 35.5 92.2998 35C92.2998 34.2 91.4998 33.6 90.4998 33.6H89.3998ZM97.8998 34.1C99.0998 34.1 99.9998 35 99.9998 36.1C99.9998 37.2 99.0998 38.1 97.9998 38.1C96.7998 38.1 95.8998 37.2 95.8998 36.1C95.8998 35 96.7998 34.1 97.8998 34.1ZM97.9998 33.4C96.3998 33.4 95.1998 34.6 95.1998 36C95.1998 37.5 96.3998 38.7 97.9998 38.7C99.5998 38.7 100.8 37.5 100.8 36C100.7 34.6 99.4998 33.4 97.9998 33.4ZM104.4 34.2C104.9 34.2 105.2 34.2 105.4 34.3C105.7 34.4 105.9 34.7 105.9 35C105.9 35.6 105.4 35.9 104.4 35.9V34.2ZM103.7 33.6V38.6H104.4V36.5C105 36.5 105.3 36.4 105.7 36.3C106.3 36 106.7 35.6 106.7 35C106.7 34.1 105.9 33.6 104.8 33.6H103.7ZM110.2 34.2C110.7 34.2 111 34.2 111.2 34.3C111.5 34.4 111.7 34.7 111.7 35C111.7 35.3 111.5 35.6 111.2 35.8C111 35.9 110.7 35.9 110.2 35.9V34.2ZM109.6 33.6V38.6H110.3V36.5H110.5L111.9 38.6H112.7L111.2 36.5C111.6 36.4 111.8 36.3 112 36.1C112.3 35.8 112.5 35.5 112.5 35C112.5 34.2 111.7 33.6 110.7 33.6H109.6ZM115.5 33.6V38.6H118.3V37.9H116.2V36.2H118.3V35.5H116.2V34.2H118.3V33.5H115.5V33.6ZM121.3 33.6V34.3H122.5V38.6H123.2V34.3H124.4V33.6H121.3ZM127.3 33.6V38.6H130.1V37.9H128V36.2H130.1V35.5H128V34.2H130.1V33.5H127.3V33.6Z" fill="white" fill-opacity="0.5"/>
</svg>
