<svg width="162" height="41" viewBox="0 0 162 41" fill="none" xmlns="http://www.w3.org/2000/svg">
<path d="M42.7998 29.5C43.1998 29.8 43.3998 30.3 43.3998 30.7H42.6998C42.4998 30 42.0998 29.6 41.1998 29.6C40.0998 29.6 39.3998 30.3 39.3998 31.9C39.3998 33.2 39.9998 34.1 41.1998 34.1C41.9998 34.1 42.5998 33.6 42.7998 32.6H43.4998C43.3998 33.9 42.3998 34.7 41.0998 34.7C39.5998 34.7 38.5998 33.6 38.5998 31.8C38.5998 30.1 39.5998 29 41.1998 29C41.8998 28.9 42.3998 29.1 42.7998 29.5ZM44.3998 29H45.0998V31C45.5998 30.4 45.7999 30.4 46.3998 30.4C47.2999 30.4 47.7998 30.8 47.7998 31.9V34.5H47.0998V32C47.0998 31.2 46.7998 31 46.2998 31C45.6998 31 45.1998 31.3 45.1998 32.4V34.5H44.4998L44.3998 29ZM49.2998 33.5C49.2998 33.1 49.4998 32.9 50.1998 32.8C50.1998 32.8 50.6998 32.7 50.9998 32.7C51.0998 32.7 51.1998 32.6 51.2998 32.6V33.1C51.2998 33.3 51.2998 33.5 51.1998 33.6C51.0998 33.8 50.8998 33.9 50.7998 34C50.3998 34.2 49.8998 34.2 49.5998 34L49.3998 33.8C49.2999 33.7 49.2998 33.6 49.2998 33.5ZM49.8998 32.3C49.0998 32.4 48.5998 32.8 48.5998 33.5C48.5998 34.2 49.0998 34.7 49.8998 34.7C50.1998 34.7 50.4998 34.6 50.6998 34.5C50.9998 34.4 51.1998 34.2 51.3998 34C51.4998 34.5 51.6998 34.6 51.9998 34.6H52.1998C52.2998 34.6 52.2999 34.6 52.3998 34.5V34H52.2998H52.1998C52.0998 34 51.9998 34 51.9998 33.9V33.7V31.4C51.9998 30.6 51.2999 30.3 50.3998 30.3C49.5998 30.3 48.7998 30.6 48.7998 31.6H49.3998C49.4998 31 49.7998 30.9 50.2998 30.9C50.8998 30.9 51.2998 31.1 51.2998 31.5V31.8C51.1998 31.9 51.0998 32 50.9998 32L49.8998 32.3ZM53.1998 30.5H53.8998V31.1C54.2999 30.6 54.6998 30.4 55.0998 30.4C55.5998 30.4 55.8998 30.6 56.1998 31C56.2998 30.8 56.4998 30.6 56.6998 30.5C56.8998 30.4 57.1998 30.3 57.3998 30.3C58.1998 30.3 58.6998 30.7 58.6998 31.7V34.4H57.9998V31.6C57.9998 30.7 57.0998 30.7 56.5998 31.2C56.3998 31.4 56.2998 31.7 56.2998 32.1V34.4H55.5998V31.8C55.5998 31.1 55.3998 30.9 54.8998 30.9C54.3998 30.9 53.8998 31.2 53.8998 32.3V34.4H53.1998V30.5ZM61.5998 34.1C60.8998 34.1 60.4998 33.6 60.4998 32.7C60.4998 31.6 60.8998 31 61.5998 31C62.2998 31 62.6998 31.6 62.6998 32.5C62.6998 33.6 62.1998 34.1 61.5998 34.1ZM59.7998 36.1H60.4998V34.1C60.8998 34.6 61.1998 34.7 61.6998 34.7C62.6998 34.7 63.3998 33.9 63.3998 32.5C63.3998 31.2 62.6998 30.5 61.6998 30.5C61.4998 30.5 61.1998 30.5 60.9998 30.7C60.7998 30.8 60.5998 31 60.4998 31.2V30.7H59.7998V36.1ZM64.2999 30.6H64.9998V34.6H64.2999V30.6ZM64.2999 29.1H64.9998V29.9H64.2999V29.1ZM67.6998 34.1C66.8998 34.1 66.4998 33.5 66.4998 32.6C66.4998 31.7 66.8998 31 67.6998 31C68.4998 31 68.8998 31.5 68.8998 32.5C68.8998 33.3 68.5998 34.1 67.6998 34.1ZM67.6998 30.4C66.4998 30.4 65.7999 31.3 65.7999 32.6C65.7999 33.9 66.4998 34.7 67.5998 34.7C68.8998 34.7 69.4998 33.8 69.4998 32.5C69.5998 31.1 68.6998 30.4 67.6998 30.4ZM70.3998 30.5H71.0998V31.1C71.1998 30.9 71.3998 30.7 71.6998 30.6C71.8998 30.5 72.1999 30.4 72.3998 30.4C73.2999 30.4 73.6998 30.8 73.6998 31.9V34.5H72.9998V32C72.9998 31.3 72.6998 31 72.1998 31C71.7998 31 71.4998 31.1 71.2999 31.4C71.0825 31.6862 70.976 32.0414 70.9998 32.4V34.5H70.2999L70.3998 30.5ZM76.5998 29.1H77.3998V34.6H76.5998V29.1ZM78.5998 30.5H79.2999V31.1C79.3998 30.9 79.5998 30.7 79.8998 30.6C80.0998 30.5 80.3998 30.4 80.5998 30.4C81.4998 30.4 81.8998 30.8 81.8998 31.9V34.5H81.1998V32C81.1998 31.3 80.8998 31 80.3998 31C79.9998 31 79.6998 31.1 79.4998 31.4C79.2825 31.6862 79.176 32.0414 79.1998 32.4V34.5H78.4998L78.5998 30.5ZM83.0998 29.4H83.7999V30.5H84.4998V31.1H83.7999V33.7C83.7999 33.8 83.8998 33.9 83.8998 34H84.1998H84.2999H84.3998V34.5C84.1999 34.5 84.0998 34.6 83.8998 34.6C83.2999 34.6 83.0998 34.2 83.0998 33.7V31.1H82.4998V30.5H83.0998V29.4ZM85.7999 32.2C85.7999 31.5 86.2999 31 86.8998 31C87.5998 31 87.8998 31.3 87.9998 32.2H85.7999ZM86.8998 30.5C85.7999 30.5 84.9998 31.4 84.9998 32.7C84.9998 34 85.7999 34.8 86.7999 34.8C87.5999 34.8 88.0998 34.6 88.4998 33.9C88.5998 33.8 88.5998 33.6 88.6998 33.4H87.9998C87.8998 33.6 87.7998 33.8 87.5998 34C87.3998 34.1 87.1999 34.2 86.8998 34.2C86.0998 34.2 85.7999 33.7 85.7999 32.9H88.7999C88.7999 32.5 88.7998 32.2 88.6998 32C88.6998 31.7 88.5998 31.5 88.3998 31.3C88.1999 31.1 87.9998 30.9 87.7999 30.8C87.4998 30.5 87.1999 30.5 86.8998 30.5ZM89.5998 30.5H90.2999V31.2C90.3998 30.9 90.8998 30.4 91.3998 30.4H91.4998H91.6998V31.1H91.5998H91.4998C90.7999 31.1 90.3998 31.6 90.3998 32.2V34.5H89.6998L89.5998 30.5ZM92.2999 30.5H92.9998V31.1C93.0998 30.9 93.2998 30.7 93.5998 30.6C93.7998 30.5 94.0999 30.4 94.2999 30.4C95.1999 30.4 95.5998 30.8 95.5998 31.9V34.5H94.9998V32C94.9998 31.3 94.6998 31 94.1998 31C93.6998 31 93.4998 31.1 93.2999 31.4C93.0825 31.6862 92.976 32.0414 92.9998 32.4V34.5H92.2999V30.5ZM97.1998 33.5C97.1998 33.1 97.3998 32.9 98.0998 32.8C98.0998 32.8 98.5998 32.7 98.8998 32.7C98.9998 32.7 99.0998 32.6 99.1998 32.6V33.1C99.1998 33.3 99.1998 33.5 99.0998 33.6C98.9998 33.8 98.7998 33.9 98.6998 34C98.2998 34.2 97.7999 34.2 97.4998 34L97.2999 33.8C97.1999 33.7 97.1998 33.6 97.1998 33.5ZM97.7999 32.3C96.9998 32.4 96.4998 32.8 96.4998 33.5C96.4998 34.2 96.9998 34.7 97.7999 34.7C98.0999 34.7 98.3998 34.6 98.5998 34.5C98.8998 34.4 99.0999 34.2 99.2999 34C99.3998 34.5 99.5998 34.6 99.8998 34.6H100.1C100.2 34.6 100.2 34.6 100.3 34.5V34H100.2H100.1C99.9998 34 99.8998 34 99.8998 33.9V33.7V31.4C99.8998 30.6 99.1999 30.3 98.2999 30.3C97.4998 30.3 96.6998 30.6 96.6998 31.6H97.2999C97.3998 31 97.6998 30.9 98.1998 30.9C98.7998 30.9 99.1998 31.1 99.1998 31.5V31.8C99.0998 31.9 98.9998 32 98.8998 32L97.7999 32.3ZM101.3 29.4H102V30.5H102.7V31.1H102V33.7C102 33.8 102 33.9 102.1 34H102.4H102.5H102.6V34.5C102.4 34.5 102.3 34.6 102.1 34.6C101.5 34.6 101.3 34.2 101.3 33.7V31.1H100.8V30.5H101.3V29.4ZM103.5 30.6H104.2V34.6H103.5V30.6ZM103.5 29.1H104.2V29.9H103.5V29.1ZM106.9 34.1C106.1 34.1 105.7 33.5 105.7 32.6C105.7 31.7 106.1 31 106.9 31C107.7 31 108.1 31.5 108.1 32.5C108 33.3 107.8 34.1 106.9 34.1ZM106.9 30.4C105.7 30.4 105 31.3 105 32.6C105 33.9 105.7 34.7 106.8 34.7C108.1 34.7 108.7 33.8 108.7 32.5C108.7 31.1 107.9 30.4 106.9 30.4ZM109.7 30.5H110.4V31.1C110.5 30.9 110.7 30.7 111 30.6C111.2 30.5 111.5 30.4 111.7 30.4C112.6 30.4 113 30.8 113 31.9V34.5H112.3V32C112.3 31.3 112 31 111.5 31C111 31 110.8 31.1 110.6 31.4C110.383 31.6862 110.276 32.0414 110.3 32.4V34.5H109.6V30.5H109.7ZM114.6 33.5C114.6 33.1 114.8 32.9 115.5 32.8C115.5 32.8 116 32.7 116.3 32.7C116.4 32.7 116.5 32.6 116.6 32.6V33.1C116.6 33.3 116.6 33.5 116.5 33.6C116.4 33.8 116.2 33.9 116.1 34C115.7 34.2 115.2 34.2 114.9 34L114.7 33.8C114.6 33.7 114.6 33.6 114.6 33.5ZM115.1 32.3C114.3 32.4 113.8 32.8 113.8 33.5C113.8 34.2 114.3 34.7 115.1 34.7C115.7 34.7 116.3 34.4 116.6 34C116.7 34.5 116.9 34.6 117.2 34.6H117.4C117.5 34.6 117.5 34.6 117.6 34.5V34H117.5H117.4C117.3 34 117.2 34 117.2 33.9V33.7V31.4C117.2 30.6 116.5 30.3 115.6 30.3C114.8 30.3 114 30.6 114 31.6H114.6C114.7 31 115 30.9 115.5 30.9C116.1 30.9 116.5 31.1 116.5 31.5V31.8C116.4 31.9 116.3 32 116.2 32L115.1 32.3ZM118.5 29.1H119.2V34.6H118.5V29.1ZM125.9 29.5C126.3 29.8 126.5 30.3 126.5 30.7H125.8C125.6 30 125.2 29.6 124.3 29.6C123.2 29.6 122.5 30.3 122.5 31.9C122.5 33.2 123.1 34.1 124.3 34.1C125.1 34.1 125.7 33.6 125.9 32.6H126.6C126.5 33.9 125.5 34.7 124.2 34.7C122.7 34.7 121.7 33.6 121.7 31.8C121.7 30.1 122.7 29 124.3 29C125 28.9 125.5 29.1 125.9 29.5ZM129 34.1C128.2 34.1 127.8 33.5 127.8 32.6C127.8 31.7 128.2 31 129 31C129.8 31 130.2 31.5 130.2 32.5C130.2 33.3 130 34.1 129 34.1ZM129.1 30.4C127.9 30.4 127.2 31.3 127.2 32.6C127.2 33.9 127.9 34.7 129 34.7C130.3 34.7 130.9 33.8 130.9 32.5C130.9 31.1 130.1 30.4 129.1 30.4ZM131.8 30.5H132.5V31.2C132.6 30.9 133.1 30.4 133.6 30.4H133.7H133.9V31.1H133.8H133.7C133 31.1 132.6 31.6 132.6 32.2V34.5H131.9L131.8 30.5ZM136.2 34.1C135.5 34.1 135.1 33.6 135.1 32.7C135.1 31.6 135.5 31 136.2 31C136.9 31 137.3 31.6 137.3 32.5C137.3 33.6 136.8 34.1 136.2 34.1ZM134.4 36.1H135.1V34.1C135.5 34.6 135.8 34.7 136.3 34.7C137.3 34.7 138 33.9 138 32.5C138 31.2 137.3 30.5 136.3 30.5C136.1 30.5 135.8 30.5 135.6 30.7C135.4 30.8 135.2 31 135.1 31.2V30.7H134.4V36.1ZM140.5 34.1C139.7 34.1 139.3 33.5 139.3 32.6C139.3 31.7 139.7 31 140.5 31C141.3 31 141.7 31.5 141.7 32.5C141.7 33.3 141.4 34.1 140.5 34.1ZM140.5 30.4C139.3 30.4 138.6 31.3 138.6 32.6C138.6 33.9 139.3 34.7 140.4 34.7C141.7 34.7 142.4 33.8 142.4 32.5C142.4 31.1 141.5 30.4 140.5 30.4ZM143.1 30.5H143.8V31.2C143.9 30.9 144.4 30.4 144.9 30.4H145H145.2V31.1H145.1H145C144.3 31.1 143.9 31.6 143.9 32.2V34.5H143.2L143.1 30.5ZM146.2 33.5C146.2 33.1 146.4 32.9 147.1 32.8C147.1 32.8 147.6 32.7 147.9 32.7C148 32.7 148.1 32.6 148.2 32.6V33.1C148.2 33.3 148.2 33.5 148.1 33.6C148 33.8 147.8 33.9 147.7 34C147.3 34.2 146.8 34.2 146.5 34C146.4 34 146.4 33.9 146.3 33.8C146.2 33.7 146.2 33.6 146.2 33.5ZM146.8 32.3C146 32.4 145.5 32.8 145.5 33.5C145.5 34.2 146 34.7 146.8 34.7C147.1 34.7 147.4 34.6 147.6 34.5C147.9 34.4 148.1 34.2 148.3 34C148.4 34.5 148.6 34.6 148.9 34.6H149.1C149.2 34.6 149.2 34.6 149.3 34.5V34H149.2H149.1C149 34 148.9 34 148.9 33.9V33.7V31.4C148.9 30.6 148.2 30.3 147.3 30.3C146.5 30.3 145.8 30.6 145.7 31.6H146.3C146.4 31 146.7 30.9 147.2 30.9C147.8 30.9 148.2 31.1 148.2 31.5V31.8C148.1 31.9 148 32 147.9 32L146.8 32.3ZM150.2 29.4H150.9V30.5H151.6V31.1H150.9V33.7C150.9 33.8 151 33.9 151 34H151.3H151.4H151.5V34.5H151.3H151C150.4 34.5 150.2 34.2 150.2 33.6V31H149.6V30.4H150.2V29.4ZM152.4 30.6H153.1V34.6H152.4V30.6ZM152.4 29.1H153.1V29.9H152.4V29.1ZM155.7 34.1C154.9 34.1 154.5 33.5 154.5 32.6C154.5 31.7 154.9 31 155.7 31C156.5 31 156.9 31.5 156.9 32.5C156.9 33.3 156.6 34.1 155.7 34.1ZM155.7 30.4C154.5 30.4 153.8 31.3 153.8 32.6C153.8 33.9 154.5 34.7 155.6 34.7C156.9 34.7 157.5 33.8 157.5 32.5C157.5 31.1 156.7 30.4 155.7 30.4ZM158.4 30.5H159.1V31.1C159.2 30.9 159.4 30.7 159.7 30.6C159.9 30.5 160.2 30.4 160.4 30.4C161.3 30.4 161.7 30.8 161.7 31.9V34.5H161V32C161 31.3 160.7 31 160.2 31C159.7 31 159.5 31.1 159.3 31.4C159.083 31.6862 158.976 32.0414 159 32.4V34.5H158.3L158.4 30.5ZM55.6998 12H50.2998C49.9998 10.7 49.5998 9.6 47.9998 9C47.0998 8.7 45.5998 8.7 44.6998 9.5C43.0998 10.7 42.8998 13.3 42.9998 14.6C43.0998 15.8 43.5998 17.6 45.1998 18.4C46.1998 18.9 47.6998 19 48.6998 18.4C49.7998 17.8 50.0998 16.8 50.2998 15.7H55.6998C55.8998 17.8 54.0998 21.1 50.8998 22.5C48.0998 23.7 43.9998 23.4 41.2998 21.6C38.1998 19.5 37.3998 15.8 37.5998 13.3C37.7998 10.3 39.0998 7.2 42.5998 5.4C45.0998 4.1 49.2998 4.2 51.5998 5.6C54.4998 7.3 55.4998 9.4 55.6998 12ZM61.7998 4.9V10.8C62.5998 10.3 62.9998 9.9 64.1998 9.5C65.4998 9.1 67.2999 9.3 68.4998 10.2C70.2999 11.5 70.4998 13.9 70.3998 15.2V22.7H65.3998V17C65.3998 15.7 65.4998 14.5 64.4998 13.9C63.9998 13.6 63.1998 13.6 62.6998 13.8C61.6998 14.5 61.7998 15.7 61.7998 17.1V22.7H56.7998V4.9H61.7998ZM77.8998 13.5C78.5998 13.2 79.5999 13.3 80.2999 13.7C81.2999 14.3 81.5998 15.3 81.4998 16.3C81.4998 17.1 81.0998 18.3 80.0998 18.9C79.6998 19.1 79.2999 19.2 78.8998 19.2C78.4998 19.2 78.0998 19.1 77.6998 18.9C76.6998 18.3 76.2998 17.4 76.1998 16.3C76.1998 15.3 76.6999 14.1 77.8998 13.5ZM78.0998 9.5C76.4998 9.3 74.3998 9.6 72.8998 11.3C71.0998 13.3 70.9998 16.7 71.4998 18.5C72.1998 20.8 73.4998 22.3 75.7999 22.9C77.6999 23.4 79.5999 23 81.2999 21.5V22.7H86.2999V10H81.2999V11C80.1999 10 79.4998 9.7 78.0998 9.5ZM100.3 11.3C102.4 9.4 104.6 9.1 106.5 9.9C109.3 11.1 109.3 13 109.3 15.4V22.8H104.2V16.8C104.2 15.2 104.2 14.3 103.5 13.8C103.2 13.7 102.9 13.6 102.6 13.6C102.3 13.6 102 13.7 101.7 13.8C100.8 14.4 100.9 15.3 100.9 16.8V22.8H95.8998V16.6C95.8998 15.7 95.9998 14.2 94.9998 13.7C94.7999 13.6 94.4998 13.5 94.1998 13.5C93.8998 13.5 93.5998 13.6 93.3998 13.7C92.4998 14.3 92.5998 15.8 92.5998 16.7V22.8H87.5998V10H92.4998V11.1C94.2999 9.4 95.8998 9.1 97.5998 9.6C98.6998 9.8 99.3998 10.2 100.3 11.3ZM117.6 13.4C118 13.3 118.5 13.3 118.9 13.4C119.3 13.5 119.7 13.7 120.1 14C120.9 14.8 121.1 16.2 120.8 17C120.7 17.5 120.5 17.9 120.1 18.3C119.8 18.6 119.3 18.9 118.9 19C118.5 19.1 118 19.1 117.6 19C117.2 18.9 116.8 18.7 116.5 18.4C115.6 17.5 115.5 16.2 115.8 15.3C116 14.4 116.6 13.7 117.6 13.4ZM119.7 23.2C121.1 23.2 123.3 22.4 124.6 20.7C126.1 18.6 126.2 15.5 125.5 13.5C124.8 11.5 123.6 10.2 121.6 9.6C119.8 9.1 117.9 9.3 115.8 10.9V9.9H110.8V27.6H115.8V21.7C117.2 22.8 118.2 23.2 119.7 23.2ZM126.6 4.9H131.6V9.1H126.6V4.9ZM126.6 10H131.6V22.8H126.6V10ZM139.2 13.2C139.6 13.1 140 13.1 140.4 13.2C140.8 13.3 141.1 13.5 141.4 13.7C142.2 14.5 142.4 16 142.2 16.9C142 17.8 141.6 18.6 140.6 19C140.2 19.1 139.8 19.2 139.5 19.1C139.2 19 138.8 18.9 138.4 18.7C137.4 17.9 137.2 16.7 137.3 15.8C137.5 14.6 137.9 13.6 139.2 13.2ZM136 10.3C133.5 11.6 132.6 13.9 132.4 15.7C132.2 17.7 132.7 19.9 135 21.7C137.1 23.3 140.4 23.6 142.5 22.9C143.6 22.5 144.6 21.9 145.3 21.1C146.1 20.3 146.6 19.3 146.9 18.2C147.4 16.3 147.4 13.8 145.5 11.8C143.4 9.5 140 9.3 138.3 9.6C137.8 9.6 136.8 9.9 136 10.3ZM161.6 22.8H156.7V17.2C156.7 15.7 156.7 14.3 155.7 13.8C155.4 13.7 155.1 13.6 154.8 13.6C154.5 13.6 154.2 13.7 153.9 13.8C152.8 14.5 152.9 16.1 152.9 17.2V23H148.1V10H152.9V11C154.7 9.4 157.1 9 158.8 9.7C161.5 10.9 161.4 13 161.4 15.2V22.8H161.6ZM1.69985 26.6C-0.300151 22.7 -0.100151 17.1 1.99985 13.3C4.29985 8.8 9.19985 5.4 14.6998 5.1C16.0998 5 17.6999 5.1 19.1999 5.1V7.7H15.7998C13.8998 7.7 12.0998 8 10.5998 8.8C8.19985 9.9 6.19985 11.7 4.79985 13.9C3.49985 16.2 2.89985 18.8 3.09985 21.3C3.59985 26.5 7.09985 30.8 12.0998 32.3C17.2998 33.9 22.9998 31.9 25.9998 28C27.4998 26.1 28.4998 23.8 28.5998 21.2L28.6999 19.9V4.9H31.3998V20.4C31.1998 26.7 27.3998 32.1 21.4998 34.4C16.0998 36.5 9.39985 35.2 5.29985 31.4C3.79985 30.2 2.49985 28.5 1.69985 26.6ZM5.39985 25.2C3.49985 21.6 4.09985 16.4 6.69985 13.4C7.79985 12.1 9.09985 11 10.5998 10.2C12.0998 9.4 13.7998 9 15.5998 9H19.1999V11.6C16.8999 11.7 14.4998 11.3 12.4998 12.2C10.9954 12.8073 9.68266 13.8092 8.69985 15.1C7.69985 16.4 7.09985 17.9 6.99985 19.5C6.79985 21.3 7.19985 23 8.09985 24.6C9.03905 26.1399 10.3898 27.3868 11.9998 28.2C14.9998 29.7 19.0998 29.1 21.4998 26.9C23.2998 25.3 24.3998 23.1 24.4998 20.7V5.1H27.1999V20.8C27.0998 25.4 24.2999 29.1 20.1999 30.9C15.9999 32.7 10.6998 31.6 7.69985 28.5C6.69985 27.5 6.09985 26.4 5.39985 25.2ZM9.39985 24.2C8.09985 22.1 7.89985 18.9 9.29985 16.7C10.2998 14.7 12.6998 13 15.1998 13H19.1999V15.6H15.9998C14.9998 15.6 13.9998 15.7 13.2998 16.3C11.7998 17.3 10.7998 19 11.1998 21.1C11.4998 22.9 12.7998 24.4 14.6998 24.9C15.5998 25.1 16.5998 25.1 17.4998 24.8C18.3998 24.5 19.1998 23.9 19.7998 23.2C20.6998 22 20.6999 20.3 20.6999 18.6V5.1H23.3998V20.2C23.3998 23.1 21.9998 25.6 19.3998 26.9C17.1998 28.1 13.9998 27.9 11.8998 26.5C10.7998 25.9 9.99985 25.1 9.39985 24.2Z" fill="white" fill-opacity="0.5"/>
</svg>
