<svg width="160" height="41" viewBox="0 0 160 41" fill="none" xmlns="http://www.w3.org/2000/svg">
<path opacity="0.5" fill-rule="evenodd" clip-rule="evenodd" d="M37.2001 12.6H33.5001L24.8001 27.7H28.2001L29.9001 24.6H35.2001L35.5001 27.7H39.0001L37.2001 12.6ZM31.3001 22L34.5001 16L34.8001 22H31.3001ZM51.3001 12.6H43.4001L40.2001 27.7H43.6001L44.9001 21.9H48.0001C49.5001 21.9 50.2001 22.7 50.1001 23.9L49.6001 27.7H53.1001C53.0001 27.5 53.0001 27.3 53.0001 27.1L53.4001 23.1C53.5001 22.2 53.0001 20.7 51.9001 20.5C53.6001 20.2 54.9001 19.2 55.3001 17.3C55.6001 16 55.3001 12.6 51.3001 12.6ZM51.9001 17.2C51.6001 18.7 50.6001 19.3 49.0001 19.3H45.4001L46.3001 15.3H50.1001C52.0001 15.2 52.1001 16.4 51.9001 17.2ZM9.50006 12C4.50006 12 2.70006 14.2 2.30006 15.9C1.60006 19.2 3.80006 20.3 6.10006 20.9L7.70006 21.3C9.20006 21.7 10.6001 22.5 10.3001 23.6C10.0001 25.2 8.00006 25.6 6.50006 25.6C4.40006 25.6 3.60006 24 3.70006 22.9H0.200063C-0.0999367 25 0.500063 28.2 6.10006 28.2C7.40006 28.2 12.7001 28.5 13.7001 23.2C14.2001 20.5 12.0001 19.2 10.0001 18.7L7.00006 17.9C6.40006 17.8 5.80006 17.4 6.00006 16.2C6.10006 15.1 7.50006 14.6 8.70006 14.6C12.1001 14.6 11.9001 16.7 11.9001 17.4H15.2001C15.6001 15.6 15.6001 12 9.50006 12ZM63.1001 25.7C60.4001 25.7 59.3001 22.9 59.9001 20.2C60.8001 15.9 63.8001 15.1 65.3001 15.1C68.6001 15.1 68.7001 17.1 68.7001 18H71.9001C72.3001 15.5 70.4001 12.3 65.8001 12.3C61.9001 12.3 57.4001 14.8 56.3001 20.1C55.2001 25.3 58.6001 28.4 62.7001 28.4C67.8001 28.4 69.8001 26.3 71.2001 23H67.5001C66.8001 24.8 65.7001 25.7 63.1001 25.7ZM101.6 27.8H104.8L106.2 21.4H113.4L114 18.7H106.8L107.5 15.3H116L116.6 12.6H104.9L101.6 27.8ZM117.6 12.6L117 15.3H122.2L119.5 27.8H122.7L125.4 15.3H130.6L131.2 12.6H117.6ZM29.8001 12.6H16.2001L15.6001 15.3H20.8001L18.1001 27.8H21.3001L24.0001 15.3H29.2001L29.8001 12.6ZM130.8 27.8H146C148.3 27.8 150.3 25.9 151.1 24.5L153.4 20.7H134.9L130.8 27.8ZM144.6 12.6C142.3 12.6 140.3 14.5 139.5 15.9L137.2 19.7H155.7L159.8 12.6H144.6ZM98.5001 12.6H94.8001L86.1001 27.7H89.5001L91.2001 24.6H96.5001L96.8001 27.7H100.3L98.5001 12.6ZM92.6001 22L95.8001 16L96.1001 22H92.6001ZM82.9001 12.6H75.0001L71.8001 27.7H75.2001L76.5001 21.9H79.6001C81.1001 21.9 81.8001 22.7 81.7001 23.9L81.2001 27.7H84.7001C84.6001 27.4 84.6001 27.3 84.6001 27L85.0001 23C85.1001 22.1 84.6001 20.6 83.5001 20.4C85.2001 20.1 86.5001 19.1 86.9001 17.2C87.3001 16 87.0001 12.6 82.9001 12.6ZM83.6001 17.2C83.3001 18.7 82.3001 19.3 80.7001 19.3H77.1001L78.0001 15.3H81.8001C83.6001 15.2 83.7001 16.4 83.6001 17.2Z" fill="white"/>
</svg>
