<svg width="144" height="41" viewBox="0 0 144 41" fill="none" xmlns="http://www.w3.org/2000/svg">
<path opacity="0.5" fill-rule="evenodd" clip-rule="evenodd" d="M72.9998 28.6H82.7998V25.2H72.9998V11.5H69.2998V28.5H72.9998V28.6ZM102.5 11.5H106.2V28.5H102.5V11.5ZM121.9 23.5L113 12.9C112.4 12.1 111.3 11.5 110.2 11.5H107.7V28.5H111.4V16.9L120.6 27.9C120.9 28.2 121.3 28.7 121.8 28.7H125.5V11.5H121.8L121.9 23.5ZM130.9 21.3H141.9V18.3H130.9V14.6H143.8V11.6H130.9C129.3 11.6 127.2 13.2 127.2 14.7V28.6H143.8V25.2H130.9V21.3ZM45.2998 28.6H50.1998L63.9998 14.7V28.6H67.6998V11.6H64.5998C62.9998 11.6 61.2998 12.5 60.1998 13.5L45.2998 28.6ZM36.0998 28.6H39.8998L56.7998 11.6H52.9998L36.0998 28.6ZM27.0998 28.6H30.8998L47.7998 11.6H43.9998L27.0998 28.6ZM18.1998 28.6H21.9998L38.8998 11.6H35.0998L18.1998 28.6ZM9.1998 28.6H12.9998L29.8998 11.6H26.0998L9.1998 28.6ZM0.299805 28.6H4.0998L20.9998 11.6H17.1998L0.299805 28.6ZM87.8998 19.2V14.6H96.1998C97.0998 14.6 97.6998 15.3 97.6998 16.1V17.7C97.6998 18.5 96.9998 19.2 96.1998 19.2H87.8998ZM84.1998 11.5H97.4998C99.5998 11.5 101.2 13.1 101.2 15.1V18.6C101.2 20.6 99.4998 22.2 97.4998 22.2H87.8998V28.5H84.1998V11.5Z" fill="white"/>
</svg>
