<svg width="132" height="41" viewBox="0 0 132 41" fill="none" xmlns="http://www.w3.org/2000/svg">
<g clip-path="url(#clip0_143_936)">
<path opacity="0.5" d="M69.8997 10.2C69.8997 11.7 68.6997 12.8 67.1997 12.8C65.6997 12.8 64.4997 11.6 64.4997 10.2C64.4997 8.7 65.5997 7.6 67.1997 7.6C68.6997 7.6 69.8997 8.8 69.8997 10.2ZM58.8997 15.5V16.1C58.8997 16.1 57.5997 14.5 54.8997 14.5C50.3997 14.5 46.8997 17.9 46.8997 22.5C46.8997 27.1 50.2997 30.5 54.8997 30.5C57.5997 30.5 58.8997 28.8 58.8997 28.8V29.5C58.8997 29.8 59.0997 30.1 59.4997 30.1H62.7997V14.9H59.4997C59.0997 14.9 58.8997 15.2 58.8997 15.5ZM58.8997 25.3C58.2997 26.2 57.0997 27 55.5997 27C52.9997 27 50.9997 25.4 50.9997 22.6C50.9997 19.8 52.9997 18.2 55.5997 18.2C56.9997 18.2 58.2997 19 58.8997 19.9V25.3ZM65.1997 14.9H69.0997V30.2H65.1997V14.9ZM124.1 14.5C121.4 14.5 120.1 16.1 120.1 16.1V7.6H116.2V30.2H119.5C119.8 30.2 120.1 29.9 120.1 29.6V28.9C120.1 28.9 121.4 30.6 124.1 30.6C128.6 30.6 132.1 27.2 132.1 22.6C132.1 18 128.5 14.5 124.1 14.5ZM123.4 26.9C121.9 26.9 120.7 26.1 120.1 25.2V19.8C120.7 19 122 18.1 123.4 18.1C126 18.1 128 19.7 128 22.5C128 25.3 126 26.9 123.4 26.9ZM114.1 21.1V30.2H110.2V21.6C110.2 19.1 109.4 18.1 107.2 18.1C106 18.1 104.8 18.7 104 19.6V30.2H99.9997V14.9H103.1C103.4 14.9 103.7 15.2 103.7 15.5V16.1C104.8 14.9 106.4 14.5 107.9 14.5C109.6 14.5 111.1 15 112.2 16C113.6 17.1 114.1 18.6 114.1 21.1ZM90.3997 14.5C87.6997 14.5 86.3997 16.1 86.3997 16.1V7.6H82.4997V30.2H85.7997C86.0997 30.2 86.3997 29.9 86.3997 29.6V28.9C86.3997 28.9 87.6997 30.6 90.3997 30.6C94.8997 30.6 98.3997 27.2 98.3997 22.6C98.3997 17.9 94.8997 14.5 90.3997 14.5ZM89.7997 26.9C88.2997 26.9 87.0997 26.1 86.4997 25.2V19.8C87.0997 19 88.3997 18.1 89.7997 18.1C92.3997 18.1 94.3997 19.7 94.3997 22.5C94.3997 25.3 92.3997 26.9 89.7997 26.9ZM79.0997 14.5C80.2997 14.5 80.8997 14.7 80.8997 14.7V18.3C80.8997 18.3 77.5997 17.2 75.5997 19.5V30.2H71.6997V14.9H74.9997C75.2997 14.9 75.5997 15.2 75.5997 15.5V16.1C76.2997 15.3 77.8997 14.5 79.0997 14.5ZM38.1997 28.8C37.9997 28.3 37.7997 27.8 37.5997 27.3C37.2997 26.6 36.8997 25.9 36.6997 25.2C33.8997 19.1 30.7997 12.9 27.5997 6.9L27.4997 6.7C27.1997 6.1 26.7997 5.4 26.4997 4.8C25.9997 4 25.5997 3.2 24.9997 2.5C23.5997 0.9 21.7997 0 19.6997 0C17.5997 0 15.7997 0.9 14.3997 2.4C13.7997 3.1 13.2997 3.9 12.8997 4.6C12.5997 5.2 12.2997 5.9 11.8997 6.5L11.7997 6.7C8.59969 12.8 5.59969 19 2.69969 25V25.1C2.39969 25.8 2.09969 26.4 1.79969 27.2C1.59969 27.6 1.39969 28.1 1.19969 28.7C0.699688 30.2 0.499688 31.6 0.699688 33.1C1.19969 36.1 3.19969 38.7 5.99969 39.8C7.09969 40.2 8.19969 40.4 9.29969 40.4C9.59969 40.4 9.99969 40.4 10.3997 40.3C11.7997 40.1 13.0997 39.7 14.4997 38.9C16.1997 38 17.7997 36.6 19.5997 34.7C21.3997 36.6 22.9997 38 24.6997 38.9C26.0997 39.7 27.3997 40.1 28.7997 40.3C29.0997 40.3 29.4997 40.4 29.8997 40.4C30.9997 40.4 32.1997 40.2 33.1997 39.8C36.0997 38.7 38.0997 36.1 38.4997 33.1C38.8997 31.7 38.6997 30.3 38.1997 28.8ZM19.6997 30.9C17.4997 28.1 15.9997 25.5 15.5997 23.4C15.3997 22.5 15.3997 21.7 15.4997 20.9C15.5997 20.3 15.7997 19.7 16.1997 19.2C16.9997 18.1 18.2997 17.4 19.7997 17.4C21.2997 17.4 22.6997 18 23.3997 19.2C23.6997 19.7 23.9997 20.3 24.0997 20.9C24.1997 21.6 24.1997 22.5 23.9997 23.4C23.3997 25.5 21.8997 28.1 19.6997 30.9ZM36.0997 32.8C35.7997 34.9 34.3997 36.7 32.3997 37.5C31.3997 37.9 30.2997 38 29.2997 37.9C28.2997 37.8 27.1997 37.5 26.1997 36.8C24.6997 36 23.1997 34.7 21.4997 32.9C24.1997 29.6 25.7997 26.6 26.4997 23.9C26.7997 22.6 26.7997 21.5 26.6997 20.5C26.4997 19.5 26.1997 18.6 25.5997 17.7C24.2997 15.9 22.1997 14.8 19.7997 14.8C17.3997 14.8 15.2997 15.9 13.9997 17.7C13.3997 18.5 13.0997 19.4 12.8997 20.5C12.6997 21.6 12.7997 22.7 13.0997 23.9C13.6997 26.6 15.3997 29.6 18.0997 32.9C16.3997 34.8 14.8997 36 13.3997 36.8C12.2997 37.4 11.2997 37.7 10.2997 37.9C9.19969 38 8.09969 37.9 7.19969 37.5C5.19969 36.7 3.79969 34.9 3.49969 32.8C3.39969 31.8 3.49969 30.8 3.89969 29.6C3.99969 29.2 4.19969 28.8 4.39969 28.3C4.69969 27.7 4.99969 27 5.29969 26.3V26.2C8.09969 20.2 11.1997 14 14.2997 8L14.3997 7.8C14.6997 7.2 15.0997 6.5 15.3997 5.9C15.6997 5.3 16.0997 4.6 16.4997 4.1C17.3997 3.1 18.4997 2.6 19.7997 2.6C21.0997 2.6 22.1997 3.1 23.0997 4.1C23.5997 4.6 23.8997 5.2 24.1997 5.9C24.4997 6.5 24.8997 7.2 25.1997 7.8L25.2997 8C28.3997 14 31.3997 20.1 34.2997 26.3C34.5997 27 34.8997 27.7 35.1997 28.3C35.3997 28.8 35.5997 29.2 35.6997 29.6C36.0997 30.8 36.1997 31.8 36.0997 32.8Z" fill="white"/>
</g>
<defs>
<clipPath id="clip0_143_936">
<rect width="132" height="41" fill="white"/>
</clipPath>
</defs>
</svg>
