<svg width="165" height="27" viewBox="0 0 165 27" fill="none" xmlns="http://www.w3.org/2000/svg">
<path d="M0 13.4557C-2.32656e-07 10.7945 0.789159 8.19295 2.26768 5.9802C3.74621 3.76744 5.84768 2.04282 8.30639 1.02433C10.7651 0.00584555 13.4706 -0.260508 16.0807 0.258627C18.6909 0.777762 14.1989 8.94888 16.0807 10.8307C17.9625 12.7125 26.1336 8.22052 26.6528 10.8307C27.1719 13.4408 26.9055 16.1463 25.887 18.605C24.8686 21.0637 23.1439 23.1652 20.9312 24.6437C18.7184 26.1222 16.1169 26.9114 13.4556 26.9114L13.4556 13.4557L0 13.4557Z" fill="#448C74"/>
<path d="M32.2135 1.23223H36.2884L42.2884 18.382L48.2884 1.23223H52.3632L43.9247 24.5905H40.652L32.2135 1.23223ZM30.0156 1.23223H34.0744L34.8124 17.9488V24.5905H30.0156V1.23223ZM50.5023 1.23223H54.5771V24.5905H49.7643V17.9488L50.5023 1.23223Z" fill="#121519"/>
<path d="M77.9835 12.3659V13.4729C77.9835 15.2483 77.7429 16.8419 77.2616 18.2536C76.7803 19.6654 76.1012 20.8686 75.2242 21.8632C74.3472 22.8472 73.299 23.6012 72.0798 24.1253C70.8712 24.6493 69.529 24.9114 68.0531 24.9114C66.5878 24.9114 65.2456 24.6493 64.0263 24.1253C62.8178 23.6012 61.7696 22.8472 60.8819 21.8632C59.9942 20.8686 59.3044 19.6654 58.8124 18.2536C58.3311 16.8419 58.0905 15.2483 58.0905 13.4729V12.3659C58.0905 10.5798 58.3311 8.98624 58.8124 7.58517C59.2937 6.17341 59.9728 4.9702 60.8498 3.97555C61.7375 2.9809 62.7857 2.22154 63.9942 1.69747C65.2135 1.17341 66.5557 0.911377 68.021 0.911377C69.4969 0.911377 70.8392 1.17341 72.0477 1.69747C73.267 2.22154 74.3151 2.9809 75.1921 3.97555C76.0798 4.9702 76.7643 6.17341 77.2456 7.58517C77.7375 8.98624 77.9835 10.5798 77.9835 12.3659ZM73.1226 13.4729V12.3338C73.1226 11.0932 73.0103 10.0023 72.7857 9.06111C72.5611 8.11993 72.2295 7.32849 71.791 6.68678C71.3525 6.04507 70.8178 5.56378 70.1867 5.24293C69.5557 4.91138 68.8338 4.7456 68.021 4.7456C67.2081 4.7456 66.4862 4.91138 65.8552 5.24293C65.2349 5.56378 64.7055 6.04507 64.267 6.68678C63.8392 7.32849 63.5129 8.11993 63.2884 9.06111C63.0638 10.0023 62.9515 11.0932 62.9515 12.3338V13.4729C62.9515 14.7028 63.0638 15.7937 63.2884 16.7456C63.5129 17.6868 63.8445 18.4836 64.283 19.136C64.7215 19.7777 65.2563 20.2643 65.8873 20.5959C66.5183 20.9274 67.2402 21.0932 68.0531 21.0932C68.8659 21.0932 69.5878 20.9274 70.2188 20.5959C70.8498 20.2643 71.3793 19.7777 71.8071 19.136C72.2349 18.4836 72.5611 17.6868 72.7857 16.7456C73.0103 15.7937 73.1226 14.7028 73.1226 13.4729Z" fill="#121519"/>
<path d="M81.4488 1.23223H90.16C91.9461 1.23223 93.4809 1.49961 94.7643 2.03437C96.0584 2.56913 97.0531 3.36057 97.7482 4.4087C98.4434 5.45683 98.791 6.7456 98.791 8.27501C98.791 9.52635 98.5771 10.6012 98.1493 11.4996C97.7322 12.3873 97.1386 13.1306 96.3686 13.7296C95.6092 14.3178 94.7162 14.7884 93.6894 15.1413L92.1654 15.9435H84.5932L84.5611 12.1895H90.1921C91.037 12.1895 91.7375 12.0397 92.2937 11.7403C92.8498 11.4408 93.267 11.0237 93.545 10.4889C93.8338 9.95416 93.9782 9.33384 93.9782 8.62795C93.9782 7.87929 93.8392 7.23223 93.5611 6.68678C93.283 6.14132 92.8605 5.72421 92.2937 5.43544C91.7269 5.14667 91.0156 5.00229 90.16 5.00229H86.2616V24.5905H81.4488V1.23223ZM94.5076 24.5905L89.1814 14.1788L94.267 14.1467L99.6573 24.3659V24.5905H94.5076Z" fill="#121519"/>
<path d="M111.593 16.2643H105.641V12.5103H111.593C112.513 12.5103 113.262 12.3606 113.839 12.0611C114.417 11.7509 114.839 11.3231 115.107 10.7777C115.374 10.2322 115.508 9.61726 115.508 8.93277C115.508 8.23758 115.374 7.59052 115.107 6.99159C114.839 6.39266 114.417 5.91138 113.839 5.54774C113.262 5.1841 112.513 5.00229 111.593 5.00229H107.31V24.5905H102.497V1.23223H111.593C113.422 1.23223 114.989 1.56378 116.294 2.22688C117.609 2.87929 118.615 3.78303 119.31 4.93811C120.005 6.09319 120.353 7.41405 120.353 8.90068C120.353 10.4087 120.005 11.7135 119.31 12.8151C118.615 13.9167 117.609 14.767 116.294 15.3659C114.989 15.9649 113.422 16.2643 111.593 16.2643Z" fill="#121519"/>
<path d="M139.251 10.7456V14.4996H127.058V10.7456H139.251ZM128.486 1.23223V24.5905H123.673V1.23223H128.486ZM142.684 1.23223V24.5905H137.887V1.23223H142.684Z" fill="#121519"/>
<path d="M149.631 1.23223L154.508 11.8846L159.385 1.23223H164.631L156.946 16.0878V24.5905H152.069V16.0878L144.369 1.23223H149.631Z" fill="#121519"/>
</svg>
