<svg width="165" height="27" viewBox="0 0 165 27" fill="none" xmlns="http://www.w3.org/2000/svg">
<path d="M0 13.5444C-2.32656e-07 10.8831 0.789159 8.28157 2.26768 6.06882C3.74621 3.85607 5.84768 2.13145 8.30639 1.11296C10.7651 0.0944686 13.4706 -0.171885 16.0807 0.34725C18.6909 0.866385 14.1989 9.0375 16.0807 10.9193C17.9625 12.8011 26.1336 8.30915 26.6528 10.9193C27.1719 13.5294 26.9055 16.2349 25.887 18.6936C24.8686 21.1523 23.1439 23.2538 20.9312 24.7323C18.7184 26.2108 16.1169 27 13.4556 27L13.4556 13.5444L0 13.5444Z" fill="#448C74"/>
<path d="M32.2135 1.32086H36.2884L42.2884 18.4706L48.2884 1.32086H52.3632L43.9247 24.6791H40.652L32.2135 1.32086ZM30.0156 1.32086H34.0744L34.8124 18.0374V24.6791H30.0156V1.32086ZM50.5023 1.32086H54.5771V24.6791H49.7643V18.0374L50.5023 1.32086Z" fill="white"/>
<path d="M77.9835 12.4545V13.5615C77.9835 15.3369 77.7429 16.9305 77.2616 18.3422C76.7803 19.754 76.1012 20.9572 75.2242 21.9519C74.3472 22.9358 73.299 23.6898 72.0798 24.2139C70.8712 24.738 69.529 25 68.0531 25C66.5878 25 65.2456 24.738 64.0263 24.2139C62.8178 23.6898 61.7696 22.9358 60.8819 21.9519C59.9942 20.9572 59.3044 19.754 58.8124 18.3422C58.3311 16.9305 58.0905 15.3369 58.0905 13.5615V12.4545C58.0905 10.6684 58.3311 9.07487 58.8124 7.6738C59.2937 6.26203 59.9728 5.05882 60.8498 4.06417C61.7375 3.06952 62.7857 2.31016 63.9942 1.7861C65.2135 1.26203 66.5557 1 68.021 1C69.4969 1 70.8392 1.26203 72.0477 1.7861C73.267 2.31016 74.3151 3.06952 75.1921 4.06417C76.0798 5.05882 76.7643 6.26203 77.2456 7.6738C77.7375 9.07487 77.9835 10.6684 77.9835 12.4545ZM73.1226 13.5615V12.4225C73.1226 11.1818 73.0103 10.0909 72.7857 9.14973C72.5611 8.20856 72.2295 7.41711 71.791 6.7754C71.3525 6.13369 70.8178 5.65241 70.1867 5.33155C69.5557 5 68.8338 4.83422 68.021 4.83422C67.2081 4.83422 66.4862 5 65.8552 5.33155C65.2349 5.65241 64.7055 6.13369 64.267 6.7754C63.8392 7.41711 63.5129 8.20856 63.2884 9.14973C63.0638 10.0909 62.9515 11.1818 62.9515 12.4225V13.5615C62.9515 14.7914 63.0638 15.8824 63.2884 16.8342C63.5129 17.7754 63.8445 18.5722 64.283 19.2246C64.7215 19.8663 65.2563 20.3529 65.8873 20.6845C66.5183 21.016 67.2402 21.1818 68.0531 21.1818C68.8659 21.1818 69.5878 21.016 70.2188 20.6845C70.8498 20.3529 71.3793 19.8663 71.8071 19.2246C72.2349 18.5722 72.5611 17.7754 72.7857 16.8342C73.0103 15.8824 73.1226 14.7914 73.1226 13.5615Z" fill="white"/>
<path d="M81.4488 1.32086H90.16C91.9461 1.32086 93.4809 1.58824 94.7643 2.12299C96.0584 2.65775 97.0531 3.4492 97.7482 4.49733C98.4434 5.54545 98.791 6.83422 98.791 8.36364C98.791 9.61497 98.5771 10.6898 98.1493 11.5882C97.7322 12.4759 97.1386 13.2193 96.3686 13.8182C95.6092 14.4064 94.7162 14.877 93.6894 15.2299L92.1654 16.0321H84.5932L84.5611 12.2781H90.1921C91.037 12.2781 91.7375 12.1283 92.2937 11.8289C92.8498 11.5294 93.267 11.1123 93.545 10.5775C93.8338 10.0428 93.9782 9.42246 93.9782 8.71658C93.9782 7.96791 93.8392 7.32086 93.5611 6.7754C93.283 6.22995 92.8605 5.81283 92.2937 5.52406C91.7269 5.23529 91.0156 5.09091 90.16 5.09091H86.2616V24.6791H81.4488V1.32086ZM94.5076 24.6791L89.1814 14.2674L94.267 14.2353L99.6573 24.4545V24.6791H94.5076Z" fill="white"/>
<path d="M111.593 16.3529H105.641V12.5989H111.593C112.513 12.5989 113.262 12.4492 113.839 12.1497C114.417 11.8396 114.839 11.4118 115.107 10.8663C115.374 10.3209 115.508 9.70588 115.508 9.02139C115.508 8.3262 115.374 7.67914 115.107 7.08021C114.839 6.48128 114.417 6 113.839 5.63636C113.262 5.27273 112.513 5.09091 111.593 5.09091H107.31V24.6791H102.497V1.32086H111.593C113.422 1.32086 114.989 1.65241 116.294 2.31551C117.609 2.96791 118.615 3.87166 119.31 5.02674C120.005 6.18182 120.353 7.50267 120.353 8.9893C120.353 10.4973 120.005 11.8021 119.31 12.9037C118.615 14.0053 117.609 14.8556 116.294 15.4545C114.989 16.0535 113.422 16.3529 111.593 16.3529Z" fill="white"/>
<path d="M139.251 10.8342V14.5882H127.058V10.8342H139.251ZM128.486 1.32086V24.6791H123.673V1.32086H128.486ZM142.684 1.32086V24.6791H137.887V1.32086H142.684Z" fill="white"/>
<path d="M149.631 1.32086L154.508 11.9733L159.385 1.32086H164.631L156.946 16.1765V24.6791H152.069V16.1765L144.369 1.32086H149.631Z" fill="white"/>
</svg>
